<!DOCTYPE svg PUBLIC "-//W3C//DTD SVG 1.1//EN" "http://www.w3.org/Graphics/SVG/1.1/DTD/svg11.dtd">
<svg xmlns="http://www.w3.org/2000/svg" viewBox="0 0 699 418">
<path fill="#2c2426" d="M467.973 84.704c-4.63 3.191-8.37 10.211-13.019 24.436-3.468 10.613-3.354 11.001 2.307 7.877 18.262-10.075 25.678-18.653 23.948-27.702-.967-5.063-8.682-7.75-13.236-4.611M284.417 98.765c-.595.404-6.848 8.385-13.896 17.735-7.047 9.35-13.803 18.046-15.014 19.324l-2.2 2.324-2.664-5.445c-6.841-13.982-21.99-24.618-44.143-30.994-6.444-1.854-10.626-2.048-52.638-2.44l-45.638-.426-2.145 2.302c-1.179 1.266-4.714 5.689-7.855 9.829a3288.726 3288.726 0 0 1-13.973 18.219l-8.261 10.692.255 98.808.255 98.807 46.46.26c50.248.281 57.777-.304 74.105-5.767 21.168-7.081 41.223-23.419 53.568-43.638 2.338-3.83 2.871.473 3.032 24.479l.165 24.666 184.085.253c116.399.159 184.085-.099 184.085-.702 0-1.503-8.04-6.646-13.047-8.346-12.63-4.287-42.204-5.478-69.234-2.788-13.329 1.327-17.719.523-17.719-3.244 0-3.247 10.915-10.793 19.68-13.605 4.163-1.336 21.13-1.17 57.451.563 18.258.871 23.869-1.271 23.869-9.112 0-9.88-8.126-10.937-27.503-3.576-15.255 5.795-23.127 6.51-51.306 4.658-24.51-1.61-30.316-3.242-24.131-6.783C533.154 287.322 562.083 276 568.143 276c2.119 0 3.631-2.666 2.24-3.949-.856-.79-17.778 4.181-31.75 9.327-14.846 5.467-23.025 5.702-30.47.875-14.521-9.416 3.873-27.253 28.104-27.253 3.766 0 8.959-.478 11.54-1.062l8.693-1.968c2.2-.499 10.433-2.496 18.295-4.439 7.862-1.942 15.127-3.531 16.144-3.531 4.058 0 8.061-5.391 8.061-10.854 0-10.054-4.643-14.146-16.052-14.146-8.278 0-15.196 2.795-30.948 12.503-29.645 18.272-39.017 23.403-52.876 28.947-10.183 4.075-15.905 4.555-18.613 1.563-1.74-1.924-1.698-2.189 1.307-8.25 4.527-9.128 24.967-34.588 46.775-58.263 7.882-8.556 15.431-16.675 20.921-22.5 10.013-10.625 8.614-10.205-3.327 1-55.65 52.218-88.484 75.992-90.016 65.177-.931-6.569 7.31-19.269 41.579-64.08 6.43-8.408 5.772-8.101-6.324 2.954C476.504 191.688 458.996 203 452.81 203c-11.446 0-6.578-9.685 28.145-56 38.003-50.688 39.483-53.702 13.893-28.277C468.685 144.718 461.331 150 451.301 150c-8.327 0-18.337-7.893-20.011-15.779-2.689-12.669.094-23.759 8.023-31.971l4.103-4.25-78.958.015c-43.427.009-79.445.346-80.041.75m-172.104 13.424c-1.183 1.271-6.914 8.566-12.737 16.211L88.99 142.301l.255 91.099.255 91.1 43-.005c47.738-.005 50.83-.327 66.46-6.919 23.603-9.954 46.866-37.013 51.631-60.057 2.028-9.806 1.499-31.961-.979-41.019-4.122-15.064-13.275-27.863-24.361-34.064-6.361-3.558-6.374-3.695-.807-8.596 7.212-6.348 9.941-13.262 10.004-25.34.047-9.082-.193-10.416-2.614-14.534-5.75-9.782-16.838-17.433-31.334-21.623-5.137-1.485-11.759-1.787-46.019-2.099l-40.019-.365-2.149 2.31m176.019.061c-1.108 1.237-6.814 8.677-12.679 16.532l-10.664 14.282.256 90.718.255 90.718 50.5.277c27.775.152 51.49.037 52.701-.257 1.982-.481 30.159-40.553 31.12-44.258.25-.965-8.238-1.296-38.5-1.5L322.5 278.5v-55l11.402-.5 11.401-.5 11.349-15.792c6.241-8.686 11.348-15.99 11.348-16.231 0-.242-10.238-.56-22.75-.708l-22.75-.269v-46l31.831-.5 31.832-.5 1.924-2.643c1.058-1.454 6.647-8.571 12.419-15.817 5.771-7.246 10.494-13.369 10.494-13.607 0-.238-27.147-.433-60.326-.433h-60.325l-2.017 2.25m239.47 13.94c-9.247 2.46-11.877 10.935-5.402 17.41 3.327 3.327 3.579 3.4 11.75 3.385 11.106-.021 12.031-.795 13.281-11.108 1.117-9.222-6.761-13.11-19.629-9.687m-377.314 26.984c-.279.729-.39 27.876-.247 60.326l.259 59 17.26.274c15.832.251 17.676.094 22.293-1.892 16.086-6.92 20.808-33.091 8.582-47.554-5.345-6.323-11.444-8.328-25.331-8.328-7.781 0-12.304-.379-12.304-1.031 0-.567 5.547-8.329 12.328-17.25 22.294-29.332 24.649-34.581 18.775-41.843-1.888-2.333-2.279-2.382-21.515-2.702-15.586-.26-19.696-.056-20.1 1m13.762 11.488c-1.544.623-1.813 24.338-.276 24.338 1.555 0 16.872-22.238 16.315-23.688-.499-1.301-13.154-1.814-16.039-.65m-.808 63.628c-.272.71-.371 8.472-.218 17.25l.276 15.96 10.133.284c9.777.273 10.248.187 13.386-2.454 9.624-8.097 8.026-26.488-2.69-30.966-4.335-1.811-20.199-1.867-20.887-.074" fill-rule="evenodd"/>
</svg>