<!DOCTYPE svg PUBLIC "-//W3C//DTD SVG 1.1//EN" "http://www.w3.org/Graphics/SVG/1.1/DTD/svg11.dtd">
<svg xmlns="http://www.w3.org/2000/svg" viewBox="0 0 142 116">
<path d="M0 58.007v58.006l71.25-.256 71.25-.257.258-57.75.258-57.75H0v58.007m.468.493c0 31.9.127 45.095.281 29.321.155-15.773.155-41.873.001-58C.595 13.695.468 26.6.468 58.5m40.755-46.943C39.086 13.053 39 13.721 39 28.862c0 15.229-.083 15.861-2.5 19.138-3.9 5.286-3.074 4.799 5.25-3.098l7.75-7.353.503-7.025.503-7.024 1.406 5.75c.774 3.163 1.583 5.75 1.799 5.75 1.441 0 8.225-4.691 7.953-5.5-.185-.55-1.395-5.163-2.688-10.25L56.625 10h-6.59c-4.346 0-7.347.53-8.812 1.557m39.295-.307c-.231.688-.935 3.275-1.566 5.75s-1.666 5.147-2.3 5.937c-.954 1.191-.808 1.293.848.594 1.1-.464 6.95-2.327 13-4.14 6.05-1.812 10.438-3.317 9.75-3.343C99.538 16.021 99 14.708 99 13v-3h-9.031c-6.335 0-9.157.373-9.451 1.25m43.982 3.229C79.021 29.063 55.2 42.957 44.745 61c-4.849 8.367-4.744 10 .647 10H50v-5.106c0-4.196.55-5.8 3.084-9 4.146-5.235 4.207-5.19 6.861 5.106l2.321 9h13.299l3.876-15.75c2.132-8.663 4.276-17.212 4.764-19C86.192 28.984 87 33.537 87 52v19h12V26.218l12.75-5.156c16.523-6.682 17.068-6.929 15.25-6.915-.825.006-1.95.155-2.5.332M68.94 42.691a179.25 179.25 0 0 1-2.639 1.76c-.53.303 2.037 8.549 2.662 8.549.794 0 3.454-10.916 2.816-11.555-.22-.219-1.498.341-2.839 1.246M12.441 81.292c-.299.78-.408 4.261-.242 7.734.341 7.152 2.475 9.499 2.987 3.286L15.5 88.5l2.332 3.75c2.883 4.637 3.235 4.641 5.691.064l1.977-3.686.5 3.357c1.017 6.83 3 4.621 3-3.343 0-9.484-1.121-10.17-5.099-3.121l-3.161 5.601-2.849-4.989c-3.214-5.627-4.656-6.909-5.45-4.841M61 80.755c-.825.267-2.257 1.438-3.183 2.603l-1.683 2.116-2.382-2.237c-3.89-3.655-6.559-2.984-3.341.84 3.22 3.827 3.233 4.969.089 7.923-1.375 1.292-2.5 2.72-2.5 3.174 0 1.739 3.024.712 5.377-1.825l2.459-2.651 2.424 2.818c1.727 2.008 2.949 2.618 4.248 2.119 1.63-.625 1.468-1.064-1.539-4.167L57.608 88l3.283-3.387c3.172-3.273 3.217-4.863.109-3.858m38-.061c-4.507 1.611-5.719 10.988-1.777 13.749C102.935 98.444 111 94.673 111 88c0-5.964-5.828-9.512-12-7.306m-65.305 2.091C31.736 84.949 31.233 96 33.094 96c.601 0 1.329-.9 1.616-2 .777-2.97 7.826-2.883 8.607.105 1.237 4.731 3.183 1.254 3.183-5.688V81.5l-5.555-.294c-4.408-.233-5.905.093-7.25 1.579m31.511 5.385C65.588 97.477 68 99.174 68 90.136v-6.031l5.171-.303C81.563 83.312 80.629 81 72.04 81h-7.128l.294 7.17M80 87.981c0 7.933.589 8.442 9.072 7.835 7.105-.509 6.889-3.816-.249-3.815l-5.323.002.343-5.502c.312-5.025.161-5.501-1.75-5.501-1.924 0-2.093.564-2.093 6.981m32.568-3.231c2.194 12.499 2.946 13.252 6.823 6.828l2.367-3.922 2.706 4.287c3.341 5.292 4.383 4.537 6.061-4.39 1.136-6.044 1.095-6.553-.519-6.553-1.285 0-1.93 1.126-2.428 4.236l-.677 4.235-2.049-3.235c-2.535-4.005-3.484-4.045-5.649-.242-2.063 3.625-3.203 3.835-3.203.588 0-3.481-.998-5.582-2.652-5.582-1.113 0-1.289.85-.78 3.75m22.099-3.083c-1.313 1.313-.634 3.333 1.12 3.333 1.071 0 1.848-.802 1.938-2 .145-1.923-1.675-2.717-3.058-1.333M36.2 85.2C33.827 87.573 34.878 89 39 89c3.6 0 4-.25 4-2.5 0-2.788-4.46-3.64-6.8-1.3m62.467-.533c-1.737 1.737-.598 6.407 1.833 7.515 4.921 2.242 8.845-1.514 6.893-6.6-.615-1.602-7.335-2.306-8.726-.915M69 88c0 1.87.493 2.079 4.25 1.807 2.974-.215 4.25-.757 4.25-1.807 0-1.05-1.276-1.592-4.25-1.807C69.493 85.921 69 86.13 69 88m-56.613 13.433c-.778 2.029.456 5.431 1.417 3.905.383-.609 1.596-1.277 2.696-1.486 3.017-.572 2.455-3.3-.756-3.669-1.797-.207-2.965.228-3.357 1.25m8.971.078c-.951 2.478 2.213 5.249 4.411 3.863.952-.601 1.731-1.943 1.731-2.983 0-2.523-5.225-3.272-6.142-.88m9.173-.011c1.607 5.143 1.422 4.946 2.836 3.013 1.221-1.67 1.356-1.676 1.965-.09.903 2.352 2.668 1.001 2.668-2.041 0-1.726-.381-2.264-1.232-1.738-1.728 1.067-4.768 1.188-4.768.189 0-.458-.436-.833-.969-.833-.532 0-.757.675-.5 1.5M41 102.531c0 2.819 2.086 4.092 4.75 2.9 1.49-.667 1.379-.849-.75-1.232-2.329-.418-2.363-.503-.5-1.253l2-.805-2-.17c-1.699-.145-1.624-.291.5-.971 2.369-.759 2.329-.806-.75-.9-2.837-.087-3.25.222-3.25 2.431m8-.09c0 1.343.45 2.719 1 3.059.55.34 1 .126 1-.476 0-.763.572-.788 1.888-.084 1.581.846 1.965.611 2.357-1.441.583-3.048.143-3.499-3.412-3.499-2.337 0-2.833.427-2.833 2.441m14.387-1.008c-.778 2.029.456 5.431 1.417 3.905.383-.609 1.596-1.277 2.696-1.486 3.017-.572 2.455-3.3-.756-3.669-1.797-.207-2.965.228-3.357 1.25M72 103c0 1.65.45 3 1 3s1-.54 1-1.2c0-.933.267-.933 1.2 0 1.664 1.664 3.13 1.503 2.451-.268-.31-.807-.126-1.738.409-2.069 1.706-1.055-.077-2.463-3.119-2.463-2.601 0-2.941.347-2.941 3m9.358-1.489c-.951 2.478 2.213 5.249 4.411 3.863.952-.601 1.731-1.943 1.731-2.983 0-2.523-5.225-3.272-6.142-.88m8.826 1.239c.368 3.202 3.734 4.259 5.765 1.811 1.962-2.364.524-4.561-2.984-4.561-2.79 0-3.066.274-2.781 2.75m8.996-.602c.391 2.626 2.973 4.391 5.184 3.543 1.756-.674 2.317-5.691.636-5.691-.55 0-1 .9-1 2 0 1.111-.667 2-1.5 2s-1.5-.889-1.5-2c0-1.1-.481-2-1.07-2-.588 0-.925.967-.75 2.148m9.314-1.139c-1.242 2.011.593 4.991 3.073 4.991 1.338 0 2.433-.45 2.433-1s-.9-1-2-1c-2.744 0-2.535-2.758.25-3.294 1.971-.38 1.916-.451-.441-.57-1.48-.075-2.972.318-3.315.873m8.968.339c1.014.742 1.542 1.836 1.174 2.431-.368.596-.211 1.365.348 1.711.559.345 1.016-.209 1.016-1.231s.54-2.399 1.2-3.059c.933-.933.446-1.2-2.191-1.2-3.09 0-3.227.12-1.547 1.348m7.538.082c0 .787 1.013 1.626 2.25 1.864l2.25.434-2.25.136c-3.106.188-2.849 2.136.281 2.136 2.782 0 4.505-2.742 2.502-3.98-.993-.613-.971-.893.104-1.32.75-.298-.1-.578-1.887-.621-2.189-.053-3.25.388-3.25 1.351M14 102c0 .55.675 1 1.5 1s1.5-.45 1.5-1-.675-1-1.5-1-1.5.45-1.5 1m9 .5c0 .825.675 1.5 1.5 1.5s1.5-.675 1.5-1.5-.675-1.5-1.5-1.5-1.5.675-1.5 1.5m28.813-.817c.721.289 1.584.253 1.916-.079.332-.332-.258-.568-1.312-.525-1.165.048-1.402.285-.604.604M65 102c0 .55.675 1 1.5 1s1.5-.45 1.5-1-.675-1-1.5-1-1.5.45-1.5 1m9.813-.317c.721.289 1.584.253 1.916-.079.332-.332-.258-.568-1.312-.525-1.165.048-1.402.285-.604.604M83 102.5c0 .825.675 1.5 1.5 1.5s1.5-.675 1.5-1.5-.675-1.5-1.5-1.5-1.5.675-1.5 1.5m9-.083c0 .87.713 1.583 1.583 1.583.871 0 1.406-.534 1.188-1.187-.618-1.855-2.771-2.162-2.771-.396" fill-rule="evenodd"/>
</svg>