<!DOCTYPE svg PUBLIC "-//W3C//DTD SVG 1.1//EN" "http://www.w3.org/Graphics/SVG/1.1/DTD/svg11.dtd">
<svg xmlns="http://www.w3.org/2000/svg" viewBox="0 0 157 156">
<path fill="#2a2c2b" d="M3 62.452v3.453l2.646-2.453C8.342 60.953 10 60.337 10 61.833c0 1.268 3.149.731 6.5-1.107 2.987-1.639 2.965-1.646-5.25-1.686L3 59v3.452m15.75-1.369c-2.488 2.726-2.165 3.419.715 1.532 3.342-2.19 4.561-1.987 1.817.302-1.894 1.581-2.171 2.67-1.902 7.462.375 6.657-1.766 11.181-3.905 8.255-.666-.91-1.054-3-.862-4.644.283-2.431-.023-2.99-1.633-2.99-2.495 0-2.8 6.384-.464 9.719 1.441 2.058 1.293 2.335-3.004 5.616l-4.519 3.451 8.372.118c6.357.089 8.674-.246 9.626-1.393 1.628-1.962-6.839-2.209-8.938-.261-1.077 1-1.205 1-.641 0 .407-.72.151-1.263-.603-1.282-.935-.023-.856-.38.278-1.25.872-.67 2.126-2.231 2.785-3.468 1.701-3.193 4.356-3.005 3.539.25-.554 2.207-.309 2.5 2.088 2.5 1.896 0 2.555-.416 2.186-1.378-.291-.758-.001-1.949.643-2.647.902-.976.886-1.107-.071-.567-.831.469-1.259-.064-1.29-1.603-.026-1.268-.075-3.572-.109-5.12-.073-3.358.53-4.134 2.599-3.34 1.031.396 1.543 1.906 1.543 4.554 0 3.314.368 4.033 2.25 4.395l2.25.434-2.25.136c-1.238.075-2.25.784-2.25 1.577 0 2.595 1.948 2.718 4.246.267 1.24-1.322 2.901-2.613 3.692-2.868.993-.322 1.456-2.066 1.5-5.652.069-5.739-.036-5.858-3.215-3.631C32 70.413 31 70.742 31 70.288c0-.453 1.237-1.592 2.75-2.53 1.513-.938 2.155-1.717 1.429-1.731-1.026-.021-.99-.359.161-1.509.815-.816 1.245-2.391.954-3.5-.764-2.925-14.862-2.872-17.544.065m11.002 3.758c-3.336 2.013-3.519 3.164-.502 3.144 2.074-.014 6.344-1.935 4.378-1.97-.48-.008-.313-.69.372-1.515 1.713-2.064-.565-1.881-4.248.341m18.45 4.33c.429 8.875 2.798 9.225 2.798.412C51 64.308 50.693 63 49.452 63c-1.262 0-1.492 1.139-1.25 6.171M54 69.5c0 5.111.321 6.5 1.5 6.5 1.093 0 1.508-1.152 1.53-4.25l.03-4.25 3.72 4.265C65.978 77.725 67 77.353 67 69.5c0-5.111-.321-6.5-1.5-6.5-1.059 0-1.512 1.102-1.542 3.75l-.041 3.75-3.315-3.75C55.524 61.005 54 61.639 54 69.5M69 64c0 .55.675 1 1.5 1 1.154 0 1.5 1.287 1.5 5.583 0 7.344 2.369 6.995 2.802-.412.217-3.708.712-5.171 1.75-5.171.797 0 1.448-.45 1.448-1s-2.025-1-4.5-1-4.5.45-4.5 1m10.202 5.25.298 6.25h3.417c1.879 0 3.604-.562 3.833-1.25.262-.785-.544-1.25-2.167-1.25-3.394 0-3.301-1.758.167-3.165 2.733-1.109 2.736-1.119.441-1.725-2.849-.752-2.986-2.498-.231-2.93 3.639-.57 2.156-2.18-2.008-2.18h-4.047l.297 6.25m10-.079c.305 6.309 2.761 9.917 2.834 4.162l.036-2.833 2.252 2.75c3.429 4.188 6.357 3.557 3.152-.68-1.287-1.701-1.272-2.138.122-3.678 2.883-3.186.947-5.892-4.213-5.892h-4.48l.297 6.171m12.636.336c.328 6.412 2.226 8.79 2.974 3.725.213-1.447 1.157-2.209 3-2.422 2.346-.271 2.688-.755 2.688-3.81 0-3.438-.08-3.505-4.5-3.797l-4.5-.296.338 6.6M113 67.277c0 5.5 2.217 8.723 6 8.723s6-3.223 6-8.723c0-3.135-.4-4.277-1.5-4.277-1.041 0-1.5 1.046-1.5 3.418 0 4.655-.878 6.582-3 6.582s-3-1.927-3-6.582c0-2.372-.459-3.418-1.5-3.418-1.1 0-1.5 1.142-1.5 4.277m15.643-2.789c-1.555 4.052-1.923 11.772-.539 11.317.768-.252 1.537-1.887 1.709-3.632.416-4.205 1.581-4.008 3.419.577l1.504 3.75 1.717-3.921c1.811-4.135 3.499-3.575 3.532 1.171.009 1.366.628 2.25 1.576 2.25 1.518 0 1.417-5.352-.212-11.25-.762-2.757-3.411-2.045-4.655 1.25-.623 1.65-1.44 3-1.815 3-.376 0-1.154-1.35-1.729-3-1.108-3.179-3.553-3.999-4.507-1.512M145 69.5c0 5.111.321 6.5 1.5 6.5.933 0 1.5-.944 1.5-2.5 0-1.966.508-2.5 2.378-2.5 3.176 0 4.997-2.371 4.215-5.487-.557-2.216-1.16-2.513-5.112-2.513H145v6.5M11 65.531c0 1.612 2.662 3.141 3.686 2.117.712-.713-1.548-3.648-2.808-3.648-.483 0-.878.689-.878 1.531m12 .528c0 .582.45.781 1 .441s1-.816 1-1.059S24.55 65 24 65s-1 .477-1 1.059m69 .382c0 .793.399 1.688.887 1.989 1.101.681 3.342-1.868 2.438-2.772-1.19-1.19-3.325-.687-3.325.783m13 .642c0 2.437 2.337 2.093 2.823-.416.192-.987-.318-1.667-1.25-1.667-.927 0-1.573.855-1.573 2.083M148 67c0 1.506.522 2.046 1.75 1.81.963-.186 1.75-1 1.75-1.81s-.787-1.624-1.75-1.81c-1.228-.236-1.75.304-1.75 1.81M3.158 73c0 1.375.227 1.938.504 1.25.278-.687.278-1.812 0-2.5-.277-.687-.504-.125-.504 1.25M32 74.059c0 .582.45.781 1 .441s1-.816 1-1.059S33.55 73 33 73s-1 .477-1 1.059M4 76.5c-.718.865-.815 1.5-.229 1.5.558 0 1.274-.675 1.591-1.5.316-.825.419-1.5.229-1.5-.19 0-.906.675-1.591 1.5m-1 4.559c0 .582.45.781 1 .441s1-.816 1-1.059S4.55 80 4 80s-1 .477-1 1.059m66.455 1.396C68.105 83.805 67 85.85 67 87c0 5.501 8.117 8.883 12 5 3.093-3.093 2.637-6-.941-6-3.309 0-5.011 1.697-2.622 2.614 2.405.923 1.853 2.386-.902 2.386-3.202 0-5.038-3.192-3.495-6.075.943-1.763 1.702-1.975 5.035-1.412 4.246.717 5.363-.673 1.991-2.478-3.128-1.674-5.99-1.202-8.611 1.42m14.212-1.788C82.205 82.128 82.94 93 84.5 93c.879 0 1.514-.931 1.533-2.25l.034-2.25 1.877 2.25c1.032 1.237 2.662 2.25 3.621 2.25 1.638 0 1.634-.122-.065-2-1.687-1.864-1.698-2.124-.155-3.829.91-1.006 1.655-2.33 1.655-2.943 0-2.666-7.404-5.491-9.333-3.561m13.556.89c-4.249 2.976-2.474 10.79 2.71 11.928 5.031 1.105 9.025-1.866 9.052-6.735.031-5.668-6.787-8.678-11.762-5.193m14.444-.89C110.11 82.223 111.028 90.028 113 92c4.632 4.632 10.292.749 9.803-6.724-.357-5.447-2.796-7.273-2.817-2.109-.023 5.722-1.015 7.971-3.366 7.635-1.806-.257-2.165-1.081-2.422-5.552-.284-4.929-.961-6.154-2.531-4.583m14 0c-1.374 1.374-.737 12.333.716 12.333.761 0 1.619-.9 1.907-2 .29-1.112 1.364-2 2.416-2 4.669 0 6.044-6.384 1.729-8.025-2.977-1.132-5.816-1.261-6.768-.308M5.937 84.923c-1.89 1.585-3.209 3.116-2.931 3.403.279.286 2.076-.761 3.994-2.326 1.918-1.565 3.237-3.096 2.931-3.402-.306-.306-2.103.74-3.994 2.325m80.24-.37c.452 2.172 2.227 2.305 2.633.197.21-1.095-.28-1.75-1.31-1.75-.961 0-1.512.647-1.323 1.553m12.863-.101c-2.657 3.201 1.245 8.118 4.71 5.936C107.212 88.207 105.979 83 102 83c-.965 0-2.297.653-2.96 1.452m29.133.207c.195 1.013 1.023 1.841 1.841 1.841 2.143 0 1.834-2.906-.355-3.327-1.336-.257-1.743.15-1.486 1.486m-91.094.924c.048 1.165.285 1.402.604.605.289-.722.253-1.585-.079-1.917-.332-.332-.568.258-.525 1.312m-7.52 2.949C27.986 89.721 27.918 90 29.202 90c.871 0 1.843-.675 2.16-1.5.697-1.817.64-1.816-1.803.032M3 93.431v2.48l17.348.294 17.348.295-.669-2.5-.669-2.5-16.679-.274L3 90.952v2.479m1 .557c0 1.258 17.771 1.191 18.551-.07.329-.533-3.441-.918-8.992-.918C7.928 93 4 93.406 4 93.988M24 94c0 .55 2.448 1 5.441 1s5.719-.45 6.059-1c.386-.625-1.656-1-5.441-1-3.373 0-6.059.443-6.059 1" fill-rule="evenodd"/>
</svg>